<svg id="Layer_1" data-name="Layer 1" xmlns="http://www.w3.org/2000/svg" xmlns:xlink="http://www.w3.org/1999/xlink" viewBox="0 0 36 36"><defs><style>.cls-1{fill:url(#linear-gradient);}</style><linearGradient id="linear-gradient" x1="18" y1="0.31" x2="18" y2="35.69" gradientUnits="userSpaceOnUse"><stop offset="0" stop-color="#e3bd29"/><stop offset="1" stop-color="#b27a28"/></linearGradient></defs><title>socialmedia_icon</title><path class="cls-1" d="M18,.31A17.69,17.69,0,1,0,35.69,18,17.69,17.69,0,0,0,18,.31Zm9.86,24.37a3.84,3.84,0,0,1-.5.76,8,8,0,0,1-3.55,2.37,7,7,0,0,1-.94.2A6.7,6.7,0,0,1,20,27.2a23.72,23.72,0,0,1-5.3-3.74,27.32,27.32,0,0,1-5.63-6.94,9.1,9.1,0,0,1-1-2.47,3.57,3.57,0,0,1,.11-1.89,8.22,8.22,0,0,1,2.52-3.65l0,0A1.45,1.45,0,0,1,13,8.56a12.83,12.83,0,0,1,2.26,2.92,13,13,0,0,1,.85,1.66,1.25,1.25,0,0,1-.57,1.73,12.34,12.34,0,0,1-1.26.63c-.41.19-.42.19-.22.59a13.26,13.26,0,0,0,2,2.85,13.72,13.72,0,0,0,3.69,2.92c.63.35.51.32.8-.26.19-.39.35-.79.57-1.16a1.28,1.28,0,0,1,1.7-.56l.16.06a14.8,14.8,0,0,1,4.5,3.13,3.57,3.57,0,0,1,.3.38A1.14,1.14,0,0,1,27.86,24.68Z"/></svg>