<?xml version="1.0" encoding="UTF-8"?>
<!DOCTYPE svg PUBLIC "-//W3C//DTD SVG 1.1//EN" "http://www.w3.org/Graphics/SVG/1.1/DTD/svg11.dtd">
<!-- Creator: CorelDRAW X7 -->
<svg xmlns="http://www.w3.org/2000/svg" xml:space="preserve" width="162.56mm" height="94.2305mm" version="1.1" style="shape-rendering:geometricPrecision; text-rendering:geometricPrecision; image-rendering:optimizeQuality; fill-rule:evenodd; clip-rule:evenodd"
viewBox="0 0 16283 9438"
 xmlns:xlink="http://www.w3.org/1999/xlink">
 <defs>
  <style type="text/css">
   <![CDATA[
    .fil1 {fill:#DFE1EE}
    .fil0 {fill:url(#id0)}
   ]]>
  </style>
  <linearGradient id="id0" gradientUnits="userSpaceOnUse" x1="16093.6" y1="5344.43" x2="188.878" y2="4094.01">
   <stop offset="0" style="stop-opacity:1; stop-color:#393185"/>
   <stop offset="1" style="stop-opacity:1; stop-color:#008DD2"/>
  </linearGradient>
 </defs>
 <g id="Layer_x0020_1">
  <metadata id="CorelCorpID_0Corel-Layer"/>
  <path class="fil0" d="M0 1487c1871,-904 4821,-1487 8141,-1487 3320,0 6271,583 8142,1487l0 6464c-1871,904 -4822,1487 -8142,1487 -3320,0 -6270,-583 -8141,-1487l0 -6464z"/>
  <path class="fil1" d="M16283 1625c-1979,-796 -4893,-1298 -8142,-1298 -3249,0 -6162,502 -8141,1298l0 6189c1979,795 4892,1298 8141,1298 3249,0 6163,-503 8142,-1298l0 -6189z"/>
 </g>
</svg>
