<svg xmlns="http://www.w3.org/2000/svg" width="614.4" height="326.713" viewBox="0 0 16256 8644" shape-rendering="geometricPrecision" text-rendering="geometricPrecision" image-rendering="optimizeQuality" fill-rule="evenodd" clip-rule="evenodd"><defs><linearGradient id="a" gradientUnits="userSpaceOnUse" x1="14955.5" y1="4322.14" x2="1300.48" y2="4322.14"><stop offset="0" stop-color="#b2def3"/><stop offset=".431" stop-color="#b9d0e9"/><stop offset="1" stop-color="#c0c1de"/></linearGradient><linearGradient id="b" gradientUnits="userSpaceOnUse" x1="15920.7" y1="4934.8" x2="335.32" y2="3709.48"><stop offset="0" stop-color="#393185"/><stop offset="1" stop-color="#008dd2"/></linearGradient></defs><path d="M16256 0v1947c-1868 903-4814 1485-8128 1485S1868 2850 0 1947V0c1868 902 4814 1485 8128 1485S14388 902 16256 0zm0 5212v1948c-1868 902-4814 1484-8128 1484S1868 8062 0 7160V5212c1868 903 4814 1485 8128 1485s6260-582 8128-1485z" fill="url(#a)"/><path d="M16256 1609v338c-1868 903-4814 1485-8128 1485S1868 2850 0 1947v-338c1868 902 4814 1484 8128 1484s6260-582 8128-1484zm0 3603v339c-1868 902-4814 1485-8128 1485S1868 6453 0 5551v-339c1868 903 4814 1485 8128 1485s6260-582 8128-1485z" fill="url(#b)"/></svg>