<svg id="Layer_1" data-name="Layer 1" xmlns="http://www.w3.org/2000/svg" xmlns:xlink="http://www.w3.org/1999/xlink" viewBox="0 0 36 36"><defs><style>.cls-1{fill:#fff;}.cls-2{fill:url(#linear-gradient);}</style><linearGradient id="linear-gradient" x1="18" y1="0.31" x2="18" y2="35.69" gradientUnits="userSpaceOnUse"><stop offset="0" stop-color="#e3bd29"/><stop offset="1" stop-color="#b27a28"/></linearGradient></defs><title>icon_gold</title><path class="cls-1" d="M21.22,10.75A1.22,1.22,0,1,0,22.43,12,1.22,1.22,0,0,0,21.22,10.75Z"/><path class="cls-1" d="M15.81,12.31a5.11,5.11,0,1,0,5.11,5.11A5.11,5.11,0,0,0,15.81,12.31Zm0,8.38a3.27,3.27,0,1,1,3.27-3.27A3.28,3.28,0,0,1,15.81,20.69Z"/><path class="cls-1" d="M19.87,27.79H11.58a6.24,6.24,0,0,1-6.23-6.23V13.28a6.24,6.24,0,0,1,6.23-6.23h8.29a6.24,6.24,0,0,1,6.23,6.23v8.28A6.24,6.24,0,0,1,19.87,27.79ZM11.58,9a4.28,4.28,0,0,0-4.27,4.28v8.28a4.28,4.28,0,0,0,4.27,4.28h8.29a4.28,4.28,0,0,0,4.28-4.28V13.28A4.28,4.28,0,0,0,19.87,9Z"/><circle class="cls-2" cx="18" cy="18" r="17.69"/><path class="cls-1" d="M23.49,11.31a1.22,1.22,0,1,0,1.22,1.21A1.21,1.21,0,0,0,23.49,11.31Z"/><path class="cls-1" d="M18.09,12.87A5.11,5.11,0,1,0,23.19,18,5.11,5.11,0,0,0,18.09,12.87Zm0,8.38A3.28,3.28,0,1,1,21.36,18,3.28,3.28,0,0,1,18.09,21.25Z"/><path class="cls-1" d="M22.14,28.35H13.86a6.24,6.24,0,0,1-6.23-6.23V13.83A6.24,6.24,0,0,1,13.86,7.6h8.28a6.24,6.24,0,0,1,6.23,6.23v8.29A6.24,6.24,0,0,1,22.14,28.35ZM13.86,9.56a4.28,4.28,0,0,0-4.28,4.27v8.29a4.28,4.28,0,0,0,4.28,4.28h8.28a4.28,4.28,0,0,0,4.28-4.28V13.83a4.28,4.28,0,0,0-4.28-4.27Z"/></svg>