<svg id="Layer_1" data-name="Layer 1" xmlns="http://www.w3.org/2000/svg" viewBox="0 0 36 36"><defs><style>.cls-1{fill:#2059a6;}.cls-2{fill:#fff;}</style></defs><title>icon_blue</title><circle class="cls-1" cx="18" cy="18" r="17.69"/><path class="cls-2" d="M27.77,11.94a7.76,7.76,0,0,1-1.95.55c.32-.05.78-.62,1-.85a3.59,3.59,0,0,0,.65-1.18.08.08,0,0,0,0-.1.11.11,0,0,0-.11,0,10.13,10.13,0,0,1-2.31.89.15.15,0,0,1-.16,0l-.2-.2a4.18,4.18,0,0,0-1.12-.69A4.07,4.07,0,0,0,21.81,10a4.19,4.19,0,0,0-1.63.46,4.32,4.32,0,0,0-1.32,1.08,4.07,4.07,0,0,0-.78,1.57,4.22,4.22,0,0,0,0,1.66c0,.1,0,.11-.08.1A12.35,12.35,0,0,1,10,10.86c-.1-.11-.15-.11-.22,0a4,4,0,0,0,.68,4.76c.16.15.32.3.49.43a4.07,4.07,0,0,1-1.53-.43c-.1-.06-.14,0-.15.08a1.84,1.84,0,0,0,0,.46,4.07,4.07,0,0,0,2.51,3.25,2.74,2.74,0,0,0,.51.15,4.45,4.45,0,0,1-1.51.05c-.11,0-.15,0-.11.14a4.21,4.21,0,0,0,3.16,2.64c.15,0,.29,0,.43.06s0,0,0,0a5.06,5.06,0,0,1-2.16,1.14,7.63,7.63,0,0,1-3.28.42c-.17,0-.21,0-.26,0s0,.07.05.12a6.71,6.71,0,0,0,.68.4,10.21,10.21,0,0,0,2.2.88A11.67,11.67,0,0,0,22.84,22.8,11.9,11.9,0,0,0,26,14.13c0-.13.15-.2.24-.26a7.84,7.84,0,0,0,1.54-1.61.48.48,0,0,0,.1-.3v0S27.85,11.9,27.77,11.94Z"/></svg>