<?xml version="1.0" encoding="UTF-8"?>
<!DOCTYPE svg PUBLIC "-//W3C//DTD SVG 1.1//EN" "http://www.w3.org/Graphics/SVG/1.1/DTD/svg11.dtd">
<!-- Creator: CorelDRAW X7 -->
<svg xmlns="http://www.w3.org/2000/svg" xml:space="preserve" width="206.473mm" height="42.0035mm" version="1.1" style="shape-rendering:geometricPrecision; text-rendering:geometricPrecision; image-rendering:optimizeQuality; fill-rule:evenodd; clip-rule:evenodd"
viewBox="0 0 20647 4200"
 xmlns:xlink="http://www.w3.org/1999/xlink">
 <defs>
  <style type="text/css">
   <![CDATA[
    .str2 {stroke:#6A95E4;stroke-width:84.6601}
    .str1 {stroke:#92C914;stroke-width:84.6601}
    .str0 {stroke:gray;stroke-width:20}
    .str3 {stroke:white;stroke-width:7.62001}
    .fil4 {fill:none}
    .fil2 {fill:#00AE93}
    .fil3 {fill:#6A95E4}
    .fil1 {fill:#92C914}
    .fil0 {fill:#FFB500}
    .fil5 {fill:white;fill-rule:nonzero}
   ]]>
  </style>
 </defs>
 <g id="Layer_x0020_1">
  <metadata id="CorelCorpID_0Corel-Layer"/>
  <path class="fil0" d="M2645 252c1017,0 1842,824 1842,1842 0,1017 -825,1841 -1842,1841 -1017,0 -1841,-824 -1841,-1841 0,-1018 824,-1842 1841,-1842z"/>
  <path class="fil1" d="M7786 252c1018,0 1842,824 1842,1842 0,1017 -824,1841 -1842,1841 -1017,0 -1841,-824 -1841,-1841 0,-1018 824,-1842 1841,-1842z"/>
  <path class="fil2" d="M12928 252c1017,0 1841,824 1841,1842 0,1017 -824,1841 -1841,1841 -1017,0 -1842,-824 -1842,-1841 0,-1018 825,-1842 1842,-1842z"/>
  <path class="fil3" d="M18069 252c1017,0 1842,824 1842,1842 0,1017 -825,1841 -1842,1841 -1017,0 -1841,-824 -1841,-1841 0,-1018 824,-1842 1841,-1842z"/>
  <path class="fil4 str0" d="M5713 2094l-984 0c0,-1151 -933,-2084 -2084,-2084 -1151,0 -2083,933 -2083,2084l-383 0"/>
  <path class="fil4 str0" d="M102 2186c-51,0 -92,-41 -92,-91 0,-51 41,-92 92,-92 51,0 92,41 92,92 0,50 -41,91 -92,91z"/>
  <line class="fil4 str0" x1="5090" y1="1943" x2="5233" y2= "2087" />
  <line class="fil4 str0" x1="5090" y1="2231" x2="5233" y2= "2087" />
  <line class="fil4 str0" x1="5255" y1="1943" x2="5399" y2= "2087" />
  <line class="fil4 str0" x1="5255" y1="2231" x2="5399" y2= "2087" />
  <path class="fil4 str0" d="M16007 2094l-984 0c0,-1151 -933,-2084 -2083,-2084 -1151,0 -2084,933 -2084,2084l-974 0"/>
  <line class="fil4 str0" x1="15384" y1="1943" x2="15528" y2= "2087" />
  <line class="fil4 str0" x1="15384" y1="2231" x2="15528" y2= "2087" />
  <line class="fil4 str0" x1="15549" y1="1943" x2="15693" y2= "2087" />
  <line class="fil4 str0" x1="15549" y1="2231" x2="15693" y2= "2087" />
  <path class="fil4 str0" d="M9887 2075c0,1150 -932,2083 -2083,2083 -1151,0 -2084,-933 -2084,-2083"/>
  <path class="fil4 str1" d="M8727 3943c-278,137 -592,215 -923,215 -349,0 -678,-86 -967,-238"/>
  <path class="fil4 str0" d="M20198 2075c0,1150 -933,2083 -2084,2083 -1151,0 -2083,-933 -2083,-2083"/>
  <path class="fil4 str2" d="M19038 3943c-279,137 -592,215 -924,215 -349,0 -678,-86 -967,-238"/>
  <path class="fil4 str0" d="M20545 2186c-50,0 -91,-41 -91,-91 0,-51 41,-92 91,-92 51,0 92,41 92,92 0,50 -41,91 -92,91z"/>
  <line class="fil4 str0" x1="20179" y1="2075" x2="20468" y2= "2075" />
  <path class="fil5" d="M1915 1450l0 132 -49 0 0 -132 -95 -189 53 0 67 141 67 -141 53 0 -96 189zm140 132l0 -321 205 0 0 44 -156 0 0 93 133 0 0 44 -133 0 0 96 156 0 0 44 -205 0zm371 -248l-50 142 99 0 -49 -142zm84 248l-22 -65 -126 0 -22 65 -52 0 117 -321 40 0 117 321 -52 0zm272 -227c0,-16 -5,-28 -15,-37 -10,-9 -23,-13 -39,-13l-72 0 0 100 72 0c16,0 29,-4 39,-13 10,-9 15,-21 15,-37zm2 227l-67 -135 -61 0 0 135 -49 0 0 -321 125 0c15,0 29,3 41,7 12,5 22,11 31,20 9,8 15,18 20,29 5,12 7,24 7,38 0,23 -6,42 -18,56 -13,14 -28,24 -46,29l74 142 -57 0zm396 -161c0,-16 0,-29 0,-40 -1,-11 -2,-20 -3,-27 -2,-7 -3,-13 -6,-18 -3,-5 -6,-10 -10,-14 -5,-6 -12,-11 -21,-14 -8,-4 -17,-6 -26,-6 -10,0 -19,2 -27,6 -8,3 -15,8 -21,14 -4,4 -7,9 -10,14 -2,5 -4,11 -6,18 -1,7 -2,16 -2,27 -1,11 -1,24 -1,40 0,17 0,30 1,41 0,10 1,19 2,27 2,7 4,13 6,18 3,5 6,10 10,14 6,6 13,11 21,14 8,4 17,6 27,6 9,0 18,-2 26,-6 9,-3 16,-8 21,-14 4,-4 7,-9 10,-14 3,-5 4,-11 6,-18 1,-8 2,-17 3,-27 0,-11 0,-24 0,-41zm49 0c0,16 0,30 -1,42 0,12 -1,24 -3,34 -2,10 -5,20 -9,28 -4,9 -10,17 -18,25 -11,11 -23,20 -38,25 -14,6 -29,9 -46,9 -17,0 -33,-3 -47,-9 -14,-5 -26,-14 -38,-25 -7,-8 -13,-16 -18,-25 -4,-8 -7,-18 -9,-28 -2,-10 -3,-22 -3,-34 0,-12 -1,-26 -1,-42 0,-15 1,-29 1,-41 0,-13 1,-24 3,-34 2,-10 5,-20 9,-29 5,-8 11,-17 18,-24 12,-11 24,-20 38,-26 14,-6 30,-9 47,-9 17,0 32,3 46,9 15,6 27,15 38,26 8,7 14,16 18,24 4,9 7,19 9,29 2,10 3,21 3,34 1,12 1,26 1,41zm120 -116l0 97 134 0 0 44 -134 0 0 136 -48 0 0 -321 204 0 0 44 -156 0zm-1975 545l0 97 134 0 0 44 -134 0 0 135 -48 0 0 -320 205 0 0 44 -157 0zm376 116c0,-16 0,-29 -1,-40 0,-11 -1,-20 -2,-27 -2,-7 -4,-14 -6,-18 -3,-5 -6,-10 -10,-14 -5,-6 -12,-11 -21,-15 -8,-3 -17,-5 -26,-5 -10,0 -19,2 -27,5 -9,4 -15,9 -21,15 -4,4 -7,9 -10,14 -2,4 -4,11 -6,18 -1,7 -2,16 -2,27 -1,11 -1,24 -1,40 0,16 0,30 1,40 0,11 1,20 2,27 2,8 4,14 6,19 3,5 6,9 10,14 6,6 12,10 21,14 8,4 17,5 27,5 9,0 18,-1 26,-5 9,-4 16,-8 21,-14 4,-5 7,-9 10,-14 2,-5 4,-11 6,-19 1,-7 2,-16 2,-27 1,-10 1,-24 1,-40zm49 0c0,16 0,29 -1,42 0,12 -1,24 -3,34 -2,10 -5,19 -9,28 -4,9 -10,17 -18,25 -11,11 -24,19 -38,25 -14,6 -29,9 -46,9 -18,0 -33,-3 -47,-9 -14,-6 -27,-14 -38,-25 -7,-8 -13,-16 -18,-25 -4,-9 -7,-18 -9,-28 -2,-10 -3,-22 -3,-34 -1,-13 -1,-26 -1,-42 0,-15 0,-29 1,-41 0,-13 1,-24 3,-34 2,-11 5,-20 9,-29 5,-8 11,-17 18,-24 11,-12 24,-20 38,-26 14,-6 29,-9 47,-9 17,0 32,3 46,9 14,6 27,14 38,26 8,7 14,16 18,24 4,9 7,18 9,29 2,10 3,21 3,34 1,12 1,26 1,41zm297 52c0,17 -3,32 -9,46 -6,13 -14,25 -24,35 -11,9 -23,17 -37,22 -14,5 -29,8 -46,8 -16,0 -31,-3 -45,-8 -14,-5 -26,-13 -36,-22 -11,-10 -19,-22 -24,-35 -6,-14 -9,-29 -9,-46l0 -212 48 0 0 210c0,22 6,39 18,51 12,12 28,18 48,18 21,0 37,-6 49,-18 12,-12 18,-29 18,-51l0 -210 49 0 0 212zm275 108l-148 -225 0 225 -49 0 0 -320 45 0 148 225 0 -225 49 0 0 320 -45 0zm307 -162c0,-22 0,-41 -2,-56 -1,-15 -6,-27 -15,-37 -13,-14 -31,-21 -54,-21l-59 0 0 233 59 0c23,0 41,-7 54,-22 9,-9 14,-22 15,-39 2,-16 2,-36 2,-58zm49 0c0,12 0,24 0,36 0,12 -1,23 -3,35 -2,11 -5,22 -10,32 -4,11 -11,21 -20,29 -10,10 -22,18 -36,23 -14,5 -29,7 -46,7l-113 0 0 -320 113 0c17,0 32,3 46,7 14,5 26,13 36,23 9,9 16,18 20,28 5,10 8,21 10,32 2,11 3,22 3,33 0,12 0,23 0,35zm167 -85l-50 142 99 0 -49 -142zm84 247l-22 -64 -126 0 -22 64 -52 0 118 -320 39 0 117 320 -52 0zm179 -276l0 276 -49 0 0 -276 -88 0 0 -44 225 0 0 44 -88 0zm144 276l0 -320 48 0 0 320 -48 0zm302 -160c0,-16 0,-29 -1,-40 0,-11 -1,-20 -2,-27 -2,-7 -4,-14 -6,-18 -3,-5 -6,-10 -10,-14 -6,-6 -13,-11 -21,-15 -8,-3 -17,-5 -27,-5 -9,0 -18,2 -26,5 -9,4 -16,9 -21,15 -4,4 -8,9 -10,14 -3,4 -5,11 -6,18 -1,7 -2,16 -3,27 0,11 0,24 0,40 0,16 0,30 0,40 1,11 2,20 3,27 1,8 3,14 6,19 2,5 6,9 10,14 5,6 12,10 21,14 8,4 17,5 26,5 10,0 19,-1 27,-5 8,-4 15,-8 21,-14 4,-5 7,-9 10,-14 2,-5 4,-11 6,-19 1,-7 2,-16 2,-27 1,-10 1,-24 1,-40zm48 0c0,16 0,29 0,42 0,12 -1,24 -3,34 -2,10 -5,19 -9,28 -4,9 -10,17 -18,25 -11,11 -24,19 -38,25 -14,6 -30,9 -47,9 -17,0 -32,-3 -46,-9 -14,-6 -27,-14 -38,-25 -8,-8 -14,-16 -18,-25 -4,-9 -7,-18 -9,-28 -2,-10 -3,-22 -3,-34 -1,-13 -1,-26 -1,-42 0,-15 0,-29 1,-41 0,-13 1,-24 3,-34 2,-11 5,-20 9,-29 4,-8 10,-17 18,-24 11,-12 24,-20 38,-26 14,-6 29,-9 46,-9 17,0 33,3 47,9 14,6 27,14 38,26 8,7 14,16 18,24 4,9 7,18 9,29 2,10 3,21 3,34 0,12 0,26 0,41zm269 160l-148 -225 0 225 -49 0 0 -320 45 0 148 225 0 -225 49 0 0 320 -45 0z"/>
  <path class="fil5 str3" d="M2193 2926l0 -41 124 -150c6,-7 10,-14 13,-21 3,-6 4,-14 4,-22 0,-14 -4,-26 -12,-35 -8,-9 -20,-13 -35,-13 -6,0 -12,1 -17,2 -6,2 -11,5 -16,9 -4,4 -7,9 -10,15 -3,7 -4,14 -4,23l-46 0c0,-13 2,-26 7,-37 5,-11 11,-21 19,-28 9,-8 18,-14 30,-19 11,-4 24,-6 37,-6 14,0 26,2 38,6 11,4 21,10 29,18 8,8 15,17 19,28 5,12 7,24 7,38 0,14 -3,26 -8,36 -5,10 -12,21 -22,33l-101 123 131 0 0 41 -187 0zm378 -230c0,-16 -4,-28 -12,-38 -8,-9 -20,-14 -34,-14 -15,0 -26,5 -35,14 -8,10 -12,22 -12,38l0 139c0,16 4,29 12,38 9,10 20,15 35,15 14,0 26,-5 34,-15 8,-9 12,-22 12,-38l0 -139zm46 141c0,14 -2,27 -7,38 -5,12 -12,21 -20,29 -9,8 -18,14 -30,18 -11,4 -23,7 -35,7 -13,0 -25,-3 -36,-7 -11,-4 -21,-10 -30,-18 -8,-8 -15,-17 -19,-29 -5,-11 -8,-24 -8,-38l0 -142c0,-15 3,-28 8,-39 4,-11 11,-21 19,-29 9,-8 19,-14 30,-18 11,-4 23,-6 36,-6 12,0 24,2 35,6 12,4 21,10 30,18 8,8 15,18 20,29 5,11 7,24 7,39l0 142zm56 89l0 -41 123 -150c6,-7 11,-14 13,-21 3,-6 4,-14 4,-22 0,-14 -4,-26 -12,-35 -8,-9 -19,-13 -34,-13 -6,0 -12,1 -18,2 -6,2 -11,5 -15,9 -4,4 -8,9 -11,15 -2,7 -4,14 -4,23l-45 0c0,-13 2,-26 7,-37 4,-11 11,-21 19,-28 8,-8 18,-14 29,-19 12,-4 24,-6 38,-6 13,0 26,2 37,6 12,4 22,10 30,18 8,8 14,17 19,28 4,12 6,24 6,38 0,14 -2,26 -7,36 -5,10 -13,21 -23,33l-100 123 130 0 0 41 -186 0zm378 -230c0,-16 -4,-28 -12,-38 -9,-9 -20,-14 -35,-14 -14,0 -26,5 -34,14 -8,10 -12,22 -12,38l0 139c0,16 4,29 12,38 8,10 20,15 34,15 15,0 26,-5 35,-15 8,-9 12,-22 12,-38l0 -139zm46 141c0,14 -3,27 -7,38 -5,12 -12,21 -21,29 -8,8 -18,14 -29,18 -11,4 -23,7 -36,7 -12,0 -24,-3 -36,-7 -11,-4 -21,-10 -29,-18 -8,-8 -15,-17 -20,-29 -5,-11 -7,-24 -7,-38l0 -142c0,-15 2,-28 7,-39 5,-11 12,-21 20,-29 8,-8 18,-14 29,-18 12,-4 24,-6 36,-6 13,0 25,2 36,6 11,4 21,10 29,18 9,8 16,18 21,29 4,11 7,24 7,39l0 142z"/>
  <path class="fil5" d="M6639 1522l0 -270 -62 55 0 -51 62 -54 46 0 0 320 -46 0zm710 -223c0,-17 -5,-30 -15,-40 -11,-9 -24,-13 -42,-13l-70 0 0 106 70 0c18,0 31,-4 42,-14 10,-9 15,-22 15,-39zm49 0c0,14 -3,27 -7,39 -5,12 -12,22 -21,31 -9,8 -20,15 -33,20 -12,5 -26,7 -42,7l-73 0 0 126 -48 0 0 -320 121 0c16,0 30,2 42,7 13,5 24,12 33,21 9,8 16,18 21,30 4,12 7,25 7,39zm234 -3c0,-16 -5,-28 -15,-37 -10,-9 -24,-13 -40,-13l-72 0 0 100 72 0c16,0 30,-4 40,-13 10,-9 15,-21 15,-37zm2 226l-68 -135 -61 0 0 135 -48 0 0 -320 124 0c15,0 29,2 41,7 12,4 23,11 31,19 9,8 16,18 20,30 5,11 7,24 7,37 0,24 -6,42 -18,56 -12,15 -28,24 -46,29l74 142 -56 0zm287 -160c0,-16 0,-30 0,-40 -1,-11 -2,-20 -3,-27 -1,-8 -3,-14 -6,-19 -2,-5 -6,-9 -9,-13 -6,-6 -13,-11 -21,-15 -9,-3 -17,-5 -27,-5 -10,0 -19,2 -27,5 -8,4 -15,9 -21,15 -4,4 -7,8 -9,13 -3,5 -5,11 -6,19 -2,7 -3,16 -3,27 0,10 -1,24 -1,40 0,16 1,30 1,40 0,11 1,20 3,27 1,8 3,14 6,19 2,5 5,9 9,13 6,6 13,11 21,15 8,3 17,5 27,5 10,0 18,-2 27,-5 8,-4 15,-9 21,-15 3,-4 7,-8 9,-13 3,-5 5,-11 6,-19 1,-7 2,-16 3,-27 0,-10 0,-24 0,-40zm49 0c0,15 0,29 0,42 -1,12 -2,23 -4,34 -1,10 -4,19 -9,28 -4,9 -10,17 -18,25 -11,11 -23,19 -37,25 -14,6 -30,9 -47,9 -17,0 -33,-3 -47,-9 -14,-6 -26,-14 -37,-25 -8,-8 -14,-16 -18,-25 -4,-9 -8,-18 -9,-28 -2,-11 -4,-22 -4,-34 0,-13 0,-27 0,-42 0,-15 0,-29 0,-42 0,-12 2,-23 4,-34 1,-10 5,-19 9,-28 4,-9 10,-17 18,-25 11,-11 23,-19 37,-25 14,-6 30,-9 47,-9 17,0 33,3 47,9 14,6 26,14 37,25 8,8 14,16 18,25 5,9 8,18 9,28 2,11 3,22 4,34 0,13 0,27 0,42zm206 59c0,17 -3,32 -9,45 -5,12 -13,23 -23,32 -9,9 -21,15 -34,20 -12,5 -26,7 -41,7 -16,0 -31,-2 -43,-7 -12,-5 -24,-13 -35,-24l33 -32c5,6 11,10 18,14 6,3 15,5 27,5 18,0 32,-5 43,-16 10,-11 15,-27 15,-48l0 -215 49 0 0 219zm79 101l0 -320 205 0 0 44 -157 0 0 93 134 0 0 43 -134 0 0 97 157 0 0 43 -205 0zm489 -96c-3,16 -7,30 -14,43 -7,12 -15,22 -25,31 -10,8 -22,14 -35,19 -12,4 -26,6 -40,6 -17,0 -33,-3 -47,-9 -14,-6 -26,-14 -37,-25 -8,-8 -14,-16 -18,-25 -5,-9 -8,-18 -10,-28 -2,-11 -3,-22 -3,-34 0,-13 -1,-27 -1,-42 0,-15 1,-29 1,-42 0,-12 1,-23 3,-34 2,-10 5,-19 10,-28 4,-9 10,-17 18,-25 11,-11 23,-19 37,-25 14,-6 30,-9 47,-9 29,0 54,9 75,25 20,17 33,42 39,74l-50 0c-3,-16 -11,-30 -21,-40 -11,-10 -25,-15 -43,-15 -10,0 -19,2 -27,5 -8,3 -15,8 -21,14 -3,4 -7,9 -9,14 -3,5 -5,11 -6,18 -1,8 -2,17 -3,28 -1,10 -1,24 -1,40 0,16 0,30 1,41 1,10 2,19 3,27 1,7 3,13 6,18 2,5 6,10 9,14 6,6 13,11 21,14 8,4 17,5 27,5 18,0 32,-5 43,-15 11,-10 18,-23 22,-40l49 0zm164 -180l0 276 -48 0 0 -276 -89 0 0 -44 225 0 0 44 -88 0zm-2022 6c0,7 -1,14 -4,19 -3,6 -7,11 -12,15 -5,4 -11,7 -18,9 -7,3 -15,4 -23,4 -13,0 -23,-2 -32,-5 -9,-3 -17,-9 -25,-17l16 -16c6,6 12,10 19,13 6,2 14,3 22,3 11,0 19,-2 24,-7 6,-4 9,-10 9,-18 0,-7 -2,-13 -6,-16 -2,-2 -5,-4 -7,-5 -2,-1 -6,-1 -11,-2l-19 -3c-13,-2 -23,-6 -30,-13 -8,-7 -12,-17 -12,-30 0,-7 2,-13 4,-19 3,-6 6,-11 11,-15 4,-4 10,-8 16,-10 7,-2 14,-3 23,-3 11,0 20,1 28,4 7,3 15,7 22,14l-16 15c-5,-5 -10,-8 -16,-10 -6,-1 -12,-2 -19,-2 -9,0 -16,2 -22,7 -5,5 -7,11 -7,18 0,3 0,6 1,8 1,3 3,5 5,7 4,3 10,6 18,7l18 3c8,1 14,3 18,4 5,2 9,5 12,8 5,4 8,8 10,14 2,5 3,12 3,19zm87 -93l0 138 -24 0 0 -138 -44 0 0 -22 112 0 0 22 -44 0zm3 746c0,-23 -1,-41 -3,-56 -1,-15 -6,-28 -15,-37 -13,-14 -31,-22 -54,-22l-59 0 0 233 59 0c23,0 41,-7 54,-21 9,-9 14,-22 15,-39 2,-17 3,-36 3,-58zm48 0c0,11 0,23 0,35 0,12 -1,24 -3,35 -2,12 -5,23 -9,33 -5,11 -12,20 -20,29 -10,10 -23,18 -37,23 -14,5 -29,7 -46,7l-113 0 0 -320 113 0c17,0 32,2 46,7 14,5 27,13 37,23 8,9 15,18 20,28 4,10 7,21 9,32 2,10 3,22 3,33 0,11 0,23 0,35zm72 162l0 -320 205 0 0 43 -156 0 0 94 133 0 0 43 -133 0 0 96 156 0 0 44 -205 0zm271 0l0 -320 49 0 0 276 154 0 0 44 -203 0zm259 0l0 -320 48 0 0 320 -48 0zm235 0l-37 0 -106 -320 51 0 74 233 73 -233 52 0 -107 320zm151 0l0 -320 204 0 0 43 -156 0 0 94 133 0 0 43 -133 0 0 96 156 0 0 44 -204 0zm446 -226c0,-16 -5,-28 -15,-37 -10,-9 -23,-14 -39,-14l-72 0 0 101 72 0c16,0 29,-5 39,-13 10,-9 15,-21 15,-37zm2 226l-68 -135 -60 0 0 135 -49 0 0 -320 124 0c15,0 29,2 41,7 13,4 23,11 32,19 8,8 15,18 20,30 4,11 7,24 7,37 0,23 -7,42 -19,56 -12,15 -27,24 -45,29l74 142 -57 0zm223 -132l0 132 -49 0 0 -132 -96 -188 53 0 67 141 67 -141 53 0 -95 188z"/>
  <path class="fil5 str3" d="M7152 2695c0,-15 -4,-26 -14,-34 -10,-8 -22,-12 -38,-12l-72 0 0 92 72 0c16,0 28,-4 38,-12 10,-8 14,-19 14,-34zm5 138c0,-14 -4,-26 -13,-35 -9,-9 -22,-13 -39,-13l-77 0 0 97 77 0c17,0 30,-4 39,-13 9,-10 13,-21 13,-36zm49 2c0,15 -3,28 -7,39 -5,12 -12,21 -20,29 -9,7 -19,13 -31,17 -12,4 -25,6 -39,6l-129 0 0 -320 124 0c30,0 54,7 71,23 17,16 26,37 26,64 0,9 -1,17 -4,24 -2,8 -6,14 -10,20 -4,6 -8,11 -14,15 -5,4 -10,7 -15,9 6,3 12,6 18,10 5,5 11,10 15,16 5,6 8,13 11,21 3,8 4,17 4,27zm72 91l0 -320 205 0 0 43 -157 0 0 94 134 0 0 43 -134 0 0 96 157 0 0 44 -205 0zm320 -277l0 98 133 0 0 43 -133 0 0 136 -49 0 0 -320 205 0 0 43 -156 0zm375 117c0,-16 0,-30 0,-41 -1,-10 -2,-19 -3,-27 -1,-7 -3,-13 -6,-18 -2,-5 -6,-10 -9,-14 -6,-6 -13,-11 -21,-14 -9,-4 -18,-6 -27,-6 -10,0 -19,2 -27,6 -8,3 -15,8 -21,14 -4,4 -7,9 -9,14 -3,5 -5,11 -6,18 -2,8 -3,17 -3,27 0,11 -1,25 -1,41 0,16 1,29 1,40 0,11 1,20 3,27 1,7 3,13 6,18 2,5 5,10 9,14 6,6 13,11 21,15 8,3 17,5 27,5 9,0 18,-2 27,-5 8,-4 15,-9 21,-15 3,-4 7,-9 9,-14 3,-5 5,-11 6,-18 1,-7 2,-16 3,-27 0,-11 0,-24 0,-40zm49 0c0,15 0,29 0,41 -1,13 -2,24 -4,34 -1,10 -4,20 -9,29 -4,8 -10,17 -18,24 -11,11 -23,20 -37,26 -14,6 -30,9 -47,9 -17,0 -33,-3 -47,-9 -14,-6 -26,-15 -37,-26 -8,-7 -14,-16 -18,-24 -4,-9 -8,-19 -9,-29 -2,-10 -4,-21 -4,-34 0,-12 0,-26 0,-41 0,-16 0,-29 0,-42 0,-12 2,-24 4,-34 1,-10 5,-20 9,-28 4,-9 10,-17 18,-25 11,-11 23,-20 37,-25 14,-6 30,-9 47,-9 17,0 33,3 47,9 14,5 26,14 37,25 8,8 14,16 18,25 5,8 8,18 9,28 2,10 3,22 4,34 0,13 0,26 0,42zm247 -66c0,-16 -5,-29 -15,-38 -10,-8 -23,-13 -39,-13l-72 0 0 101 72 0c16,0 29,-5 39,-14 10,-8 15,-21 15,-36zm2 226l-68 -135 -60 0 0 135 -49 0 0 -320 124 0c16,0 29,2 41,7 13,4 23,11 32,19 8,8 15,18 20,30 4,11 7,24 7,37 0,23 -6,42 -19,56 -12,14 -27,24 -45,29l74 142 -57 0zm118 0l0 -320 204 0 0 43 -156 0 0 94 134 0 0 43 -134 0 0 96 156 0 0 44 -204 0zm-971 268l0 277 -49 0 0 -277 -88 0 0 -44 225 0 0 44 -88 0zm143 277l0 -321 49 0 0 321 -49 0zm366 0l0 -214 -73 156 -36 0 -76 -156 0 214 -49 0 0 -321 49 0 94 200 91 -200 49 0 0 321 -49 0zm132 0l0 -321 205 0 0 44 -156 0 0 94 133 0 0 43 -133 0 0 96 156 0 0 44 -205 0z"/>
  <path class="fil5" d="M11899 1360c0,-22 0,-41 -2,-56 -1,-15 -6,-28 -15,-37 -13,-14 -31,-21 -54,-21l-59 0 0 233 59 0c23,0 41,-8 54,-22 9,-9 14,-22 15,-39 2,-17 2,-36 2,-58zm49 0c0,11 0,23 0,35 -1,12 -1,24 -3,35 -2,12 -5,23 -10,33 -4,11 -11,20 -20,29 -10,10 -22,18 -36,23 -14,5 -30,7 -46,7l-113 0 0 -320 113 0c16,0 32,2 46,7 14,5 26,13 36,23 9,9 16,18 20,28 5,10 8,21 10,32 2,11 2,22 3,33 0,12 0,23 0,35zm72 162l0 -320 205 0 0 44 -157 0 0 93 134 0 0 43 -134 0 0 97 157 0 0 43 -205 0zm375 0l-38 0 -105 -320 50 0 74 233 74 -233 51 0 -106 320zm150 0l0 -320 205 0 0 44 -156 0 0 93 133 0 0 43 -133 0 0 97 156 0 0 43 -205 0zm271 0l0 -320 49 0 0 277 154 0 0 43 -203 0zm417 -160c0,-16 0,-30 -1,-40 0,-11 -1,-20 -3,-27 -1,-8 -3,-14 -5,-19 -3,-5 -6,-9 -10,-13 -6,-6 -13,-11 -21,-15 -8,-3 -17,-5 -27,-5 -9,0 -18,2 -26,5 -9,4 -16,9 -21,15 -4,4 -8,8 -10,13 -3,5 -5,11 -6,19 -1,7 -2,16 -3,27 0,10 0,24 0,40 0,16 0,30 0,40 1,11 2,20 3,27 1,8 3,14 6,19 2,5 6,9 10,13 5,6 12,11 21,15 8,3 17,5 26,5 10,0 19,-2 27,-5 8,-4 15,-9 21,-15 4,-4 7,-8 10,-13 2,-5 4,-11 5,-19 2,-7 3,-16 3,-27 1,-10 1,-24 1,-40zm48 0c0,15 0,29 0,42 0,12 -1,23 -3,34 -2,10 -5,19 -9,28 -4,9 -10,17 -18,25 -11,11 -24,19 -38,25 -14,6 -30,9 -47,9 -17,0 -32,-3 -46,-9 -14,-6 -27,-14 -38,-25 -8,-8 -14,-16 -18,-25 -4,-9 -7,-18 -9,-28 -2,-11 -3,-22 -3,-34 -1,-13 -1,-27 -1,-42 0,-15 0,-29 1,-42 0,-12 1,-23 3,-34 2,-10 5,-19 9,-28 4,-9 10,-17 18,-25 11,-11 24,-19 38,-25 14,-6 29,-9 46,-9 17,0 33,3 47,9 14,6 27,14 38,25 8,8 14,16 18,25 4,9 7,18 9,28 2,11 3,22 3,34 0,13 0,27 0,42zm248 -63c0,-17 -5,-30 -16,-40 -10,-9 -24,-13 -41,-13l-70 0 0 106 70 0c17,0 31,-4 41,-14 11,-9 16,-22 16,-39zm49 0c0,14 -3,27 -8,39 -4,12 -11,22 -20,31 -9,8 -20,15 -33,20 -12,5 -26,7 -42,7l-73 0 0 126 -49 0 0 -320 122 0c16,0 30,2 42,7 13,5 24,12 33,21 9,8 16,18 20,30 5,12 8,25 8,39zm58 223l0 -320 205 0 0 44 -156 0 0 93 133 0 0 43 -133 0 0 97 156 0 0 43 -205 0zm451 -162c0,-22 -1,-41 -2,-56 -2,-15 -7,-28 -15,-37 -13,-14 -32,-21 -55,-21l-59 0 0 233 59 0c23,0 42,-8 55,-22 8,-9 13,-22 15,-39 1,-17 2,-36 2,-58zm48 0c0,11 0,23 0,35 0,12 -1,24 -3,35 -2,12 -5,23 -9,33 -5,11 -11,20 -20,29 -10,10 -22,18 -36,23 -15,5 -30,7 -47,7l-112 0 0 -320 112 0c17,0 32,2 47,7 14,5 26,13 36,23 9,9 15,18 20,28 4,10 7,21 9,32 2,11 3,22 3,33 0,12 0,23 0,35zm-1753 707l0 -320 48 0 0 276 155 0 0 44 -203 0zm358 -247l-50 142 99 0 -49 -142zm84 247l-22 -64 -126 0 -22 64 -52 0 117 -320 39 0 118 320 -52 0zm294 0l-148 -225 0 225 -49 0 0 -320 45 0 148 225 0 -225 48 0 0 320 -44 0zm307 -162c0,-23 -1,-41 -2,-56 -2,-15 -6,-28 -15,-37 -13,-14 -31,-22 -54,-22l-59 0 0 233 59 0c23,0 41,-7 54,-21 9,-9 13,-22 15,-39 1,-17 2,-36 2,-58zm49 0c0,11 0,23 0,35 -1,12 -2,24 -3,35 -2,12 -5,23 -10,33 -4,11 -11,20 -20,29 -10,10 -22,18 -36,23 -14,5 -30,7 -46,7l-113 0 0 -320 113 0c16,0 32,2 46,7 14,5 26,13 36,23 9,9 16,18 20,28 5,10 8,21 10,32 1,10 2,22 3,33 0,11 0,23 0,35z"/>
  <path class="fil5 str3" d="M12301 2819c0,17 -2,32 -5,46 -3,14 -10,27 -22,39 -7,7 -16,13 -27,18 -11,5 -25,7 -40,7 -16,0 -29,-2 -41,-7 -12,-5 -21,-11 -28,-17 -9,-9 -15,-18 -18,-29 -3,-10 -5,-21 -6,-32l46 0c2,14 6,25 14,33 7,7 18,11 33,11 13,0 24,-4 33,-13 7,-6 11,-15 13,-25 1,-10 2,-20 2,-31 0,-10 -1,-18 -2,-27 -1,-8 -4,-15 -7,-21 -4,-6 -9,-11 -15,-14 -6,-4 -13,-5 -23,-5 -13,0 -23,3 -30,8 -8,6 -13,13 -15,21l-42 0 0 -175 173 0 0 40 -132 0 0 85c6,-6 13,-10 22,-13 9,-4 20,-5 32,-5 12,0 23,1 33,5 9,4 18,9 24,15 6,6 11,13 15,20 4,7 6,14 8,21 2,7 4,14 4,22 1,8 1,15 1,23zm59 177l0 -122 53 0 0 79 -53 43zm254 -300c0,-16 -4,-28 -12,-38 -8,-9 -20,-14 -35,-14 -14,0 -26,5 -34,14 -8,10 -12,22 -12,38l0 139c0,16 4,29 12,38 8,10 20,15 34,15 15,0 27,-5 35,-15 8,-9 12,-22 12,-38l0 -139zm46 141c0,14 -2,27 -7,38 -5,12 -12,21 -20,29 -9,8 -19,14 -30,18 -11,4 -23,7 -36,7 -12,0 -24,-3 -35,-7 -12,-4 -21,-10 -30,-18 -8,-8 -15,-17 -20,-29 -4,-11 -7,-24 -7,-38l0 -142c0,-15 3,-28 7,-39 5,-11 12,-21 20,-29 9,-8 18,-14 30,-18 11,-4 23,-6 35,-6 13,0 25,2 36,6 11,4 21,10 30,18 8,8 15,18 20,29 5,11 7,24 7,39l0 142zm194 -141c0,-16 -4,-28 -12,-38 -9,-9 -20,-14 -35,-14 -14,0 -26,5 -34,14 -8,10 -12,22 -12,38l0 139c0,16 4,29 12,38 8,10 20,15 34,15 15,0 26,-5 35,-15 8,-9 12,-22 12,-38l0 -139zm46 141c0,14 -3,27 -8,38 -4,12 -11,21 -20,29 -8,8 -18,14 -29,18 -11,4 -23,7 -36,7 -12,0 -24,-3 -36,-7 -11,-4 -21,-10 -29,-18 -8,-8 -15,-17 -20,-29 -5,-11 -7,-24 -7,-38l0 -142c0,-15 2,-28 7,-39 5,-11 12,-21 20,-29 8,-8 18,-14 29,-18 12,-4 24,-6 36,-6 13,0 25,2 36,6 11,4 21,10 29,18 9,8 16,18 20,29 5,11 8,24 8,39l0 142zm62 159l0 -122 53 0 0 79 -53 43zm254 -300c0,-16 -4,-28 -12,-38 -8,-9 -20,-14 -35,-14 -14,0 -26,5 -34,14 -8,10 -12,22 -12,38l0 139c0,16 4,29 12,38 8,10 20,15 34,15 15,0 27,-5 35,-15 8,-9 12,-22 12,-38l0 -139zm46 141c0,14 -2,27 -7,38 -5,12 -12,21 -20,29 -9,8 -19,14 -30,18 -11,4 -23,7 -36,7 -12,0 -24,-3 -35,-7 -12,-4 -21,-10 -30,-18 -8,-8 -15,-17 -20,-29 -4,-11 -7,-24 -7,-38l0 -142c0,-15 3,-28 7,-39 5,-11 12,-21 20,-29 9,-8 18,-14 30,-18 11,-4 23,-6 35,-6 13,0 25,2 36,6 11,4 21,10 30,18 8,8 15,18 20,29 5,11 7,24 7,39l0 142zm194 -141c0,-16 -4,-28 -12,-38 -9,-9 -20,-14 -35,-14 -14,0 -26,5 -34,14 -8,10 -12,22 -12,38l0 139c0,16 4,29 12,38 8,10 20,15 34,15 15,0 26,-5 35,-15 8,-9 12,-22 12,-38l0 -139zm46 141c0,14 -3,27 -8,38 -4,12 -11,21 -20,29 -8,8 -18,14 -29,18 -11,4 -23,7 -36,7 -12,0 -24,-3 -36,-7 -11,-4 -21,-10 -29,-18 -8,-8 -15,-17 -20,-29 -5,-11 -7,-24 -7,-38l0 -142c0,-15 2,-28 7,-39 5,-11 12,-21 20,-29 8,-8 18,-14 29,-18 12,-4 24,-6 36,-6 13,0 25,2 36,6 11,4 21,10 29,18 9,8 16,18 20,29 5,11 8,24 8,39l0 142zm194 -141c0,-16 -4,-28 -13,-38 -8,-9 -19,-14 -34,-14 -15,0 -26,5 -34,14 -8,10 -12,22 -12,38l0 139c0,16 4,29 12,38 8,10 19,15 34,15 15,0 26,-5 34,-15 9,-9 13,-22 13,-38l0 -139zm46 141c0,14 -3,27 -8,38 -5,12 -11,21 -20,29 -8,8 -18,14 -29,18 -11,4 -23,7 -36,7 -13,0 -25,-3 -36,-7 -11,-4 -21,-10 -29,-18 -9,-8 -15,-17 -20,-29 -5,-11 -7,-24 -7,-38l0 -142c0,-15 2,-28 7,-39 5,-11 11,-21 20,-29 8,-8 18,-14 29,-18 11,-4 23,-6 36,-6 13,0 25,2 36,6 11,4 21,10 29,18 9,8 15,18 20,29 5,11 8,24 8,39l0 142zm-1171 542c0,15 -3,28 -8,40 -6,12 -14,22 -24,30 -10,8 -23,14 -37,18 -14,4 -29,6 -46,6 -24,0 -45,-3 -63,-9 -18,-6 -35,-17 -50,-33l32 -32c12,12 24,20 37,24 14,5 28,7 45,7 21,0 37,-4 49,-13 11,-9 17,-21 17,-36 0,-15 -4,-26 -13,-34 -4,-3 -8,-6 -13,-8 -5,-2 -12,-4 -22,-5l-37 -5c-27,-4 -47,-13 -61,-26 -16,-15 -24,-35 -24,-61 0,-14 3,-27 8,-38 5,-12 12,-22 21,-30 9,-9 20,-15 34,-20 13,-4 28,-6 45,-6 21,0 39,3 55,8 15,6 30,15 44,28l-31 31c-10,-10 -21,-16 -32,-20 -12,-3 -24,-5 -38,-5 -19,0 -33,5 -43,14 -10,10 -15,22 -15,36 0,6 1,11 3,16 2,5 5,10 9,14 8,7 20,12 36,14l36 6c15,2 27,5 36,9 9,4 17,9 24,15 9,8 15,17 20,28 4,11 6,24 6,37zm236 -68c0,-17 -1,-30 -1,-41 -1,-10 -1,-19 -3,-27 -1,-7 -3,-13 -6,-18 -2,-5 -5,-10 -9,-14 -6,-6 -13,-11 -21,-14 -9,-4 -17,-6 -27,-6 -10,0 -19,2 -27,6 -8,3 -15,8 -21,14 -4,4 -7,9 -9,14 -3,5 -5,11 -6,18 -2,8 -3,17 -3,27 0,11 -1,24 -1,41 0,16 1,29 1,40 0,10 1,19 3,27 1,7 3,13 6,18 2,5 5,10 9,14 6,6 13,11 21,14 8,4 17,6 27,6 12,0 23,-4 33,-11l-34 -33 27 -27 31 31c4,-8 7,-18 8,-30 1,-12 2,-29 2,-49zm32 174l-32 -32c-9,7 -20,12 -31,15 -11,4 -23,5 -36,5 -17,0 -33,-2 -47,-8 -14,-6 -26,-15 -37,-26 -8,-8 -14,-16 -18,-24 -4,-9 -7,-19 -9,-29 -2,-10 -3,-21 -4,-34 0,-12 0,-26 0,-41 0,-16 0,-30 0,-42 1,-12 2,-24 4,-34 2,-10 5,-20 9,-28 4,-9 10,-17 18,-25 11,-11 23,-20 37,-26 14,-5 30,-8 47,-8 17,0 33,3 47,8 14,6 26,15 38,26 7,8 13,16 18,25 4,8 7,18 9,28 1,10 2,22 3,34 0,12 0,26 0,42 0,13 0,25 0,37 0,11 -1,21 -2,31 -2,9 -4,17 -6,25 -3,8 -7,16 -13,23l32 31 -27 27zm81 -14l0 -55 55 0 0 55 -55 0zm181 -277l0 98 133 0 0 43 -133 0 0 136 -49 0 0 -321 205 0 0 44 -156 0zm323 0l0 277 -49 0 0 -277 -88 0 0 -44 225 0 0 44 -88 0z"/>
  <path class="fil5" d="M17579 1580l0 -140 -130 0 0 140 -49 0 0 -320 49 0 0 136 130 0 0 -136 48 0 0 320 -48 0zm232 -248l-50 143 99 0 -49 -143zm84 248l-22 -64 -126 0 -22 64 -52 0 117 -320 39 0 118 320 -52 0zm273 -223c0,-17 -5,-31 -16,-40 -10,-9 -24,-14 -41,-14l-70 0 0 107 70 0c17,0 31,-5 41,-14 11,-9 16,-22 16,-39zm48 0c0,14 -2,27 -7,39 -5,12 -11,22 -20,30 -9,9 -20,16 -33,21 -12,4 -27,7 -42,7l-73 0 0 126 -49 0 0 -320 122 0c15,0 30,2 42,7 13,5 24,12 33,20 9,9 15,19 20,31 5,12 7,25 7,39zm235 0c0,-17 -5,-31 -16,-40 -10,-9 -24,-14 -41,-14l-70 0 0 107 70 0c17,0 31,-5 41,-14 11,-9 16,-22 16,-39zm48 0c0,14 -2,27 -7,39 -5,12 -11,22 -20,30 -9,9 -20,16 -33,21 -12,4 -27,7 -42,7l-73 0 0 126 -49 0 0 -320 122 0c15,0 30,2 42,7 13,5 24,12 33,20 9,9 15,19 20,31 5,12 7,25 7,39zm164 91l0 132 -48 0 0 -132 -96 -188 53 0 67 140 67 -140 53 0 -96 188zm-1418 400l0 98 133 0 0 43 -133 0 0 136 -49 0 0 -321 205 0 0 44 -156 0zm288 29l-50 143 98 0 -48 -143zm84 248l-22 -65 -127 0 -22 65 -52 0 118 -321 39 0 117 321 -51 0zm331 0l0 -214 -74 156 -36 0 -76 -156 0 214 -48 0 0 -321 48 0 94 200 92 -200 48 0 0 321 -48 0zm132 0l0 -321 48 0 0 321 -48 0zm132 0l0 -321 49 0 0 277 154 0 0 44 -203 0zm258 0l0 -321 205 0 0 44 -156 0 0 94 133 0 0 43 -133 0 0 96 156 0 0 44 -205 0zm472 -92c0,15 -3,28 -9,40 -6,12 -13,22 -24,30 -10,8 -22,14 -36,18 -14,4 -30,7 -46,7 -25,0 -46,-4 -64,-10 -18,-6 -35,-17 -50,-33l33 -32c11,12 24,20 37,24 13,5 28,7 44,7 21,0 38,-4 49,-13 12,-8 18,-21 18,-36 0,-15 -5,-26 -13,-33 -4,-4 -9,-7 -14,-9 -4,-2 -12,-3 -21,-5l-38 -5c-26,-4 -46,-13 -61,-26 -15,-15 -23,-35 -23,-61 0,-14 2,-27 7,-38 5,-12 12,-22 22,-30 9,-9 20,-15 33,-19 13,-5 28,-7 45,-7 21,0 40,3 55,8 16,6 31,15 44,28l-31 31c-9,-10 -20,-16 -32,-20 -11,-3 -24,-5 -37,-5 -19,0 -34,5 -44,14 -10,10 -15,22 -15,36 0,6 1,11 3,16 2,5 5,10 9,14 9,7 21,12 36,15l37 5c15,2 27,5 36,9 9,4 17,9 24,15 8,8 15,17 19,28 5,11 7,24 7,37z"/>
  <path class="fil5 str3" d="M17569 2926l0 -270 -62 55 0 -51 62 -54 46 0 0 320 -46 0zm155 0l0 -41 123 -149c6,-8 10,-15 13,-21 3,-7 4,-14 4,-22 0,-15 -4,-26 -12,-35 -8,-9 -20,-14 -35,-14 -6,0 -12,1 -17,3 -6,2 -11,5 -16,8 -4,4 -7,9 -10,16 -3,6 -4,14 -4,23l-46 0c0,-14 2,-26 7,-37 5,-12 11,-21 19,-29 9,-8 18,-14 30,-18 11,-5 24,-7 37,-7 14,0 27,2 38,7 11,4 21,10 29,18 8,7 15,17 19,28 5,11 7,23 7,37 0,14 -3,26 -8,36 -5,11 -12,22 -22,34l-101 122 131 0 0 41 -186 0zm325 0l0 -270 -63 55 0 -51 63 -54 46 0 0 320 -46 0zm341 -90c0,16 -3,29 -8,41 -5,12 -12,21 -21,29 -9,8 -19,14 -31,18 -12,4 -25,5 -38,5 -13,0 -25,-1 -37,-5 -11,-3 -22,-9 -31,-16 -9,-7 -16,-17 -22,-28 -5,-11 -8,-25 -8,-41l46 0c0,9 2,17 5,23 3,6 7,11 11,15 5,4 11,7 17,9 6,2 12,3 19,3 15,0 27,-5 37,-14 10,-9 15,-23 15,-40 0,-16 -4,-29 -13,-38 -9,-10 -23,-15 -41,-15l-7 0 0 -40 7 0c17,0 30,-4 37,-13 8,-9 12,-21 12,-36 0,-16 -5,-28 -14,-37 -9,-8 -20,-12 -33,-12 -14,0 -26,4 -34,12 -8,8 -13,20 -14,34l-46 0c0,-13 3,-26 8,-36 5,-11 12,-20 21,-28 8,-7 18,-13 29,-17 11,-4 23,-6 36,-6 13,0 26,2 37,6 12,5 21,11 30,19 8,8 14,17 19,28 5,11 7,23 7,36 0,17 -4,32 -11,43 -7,11 -17,20 -29,26 14,6 25,15 33,27 8,12 12,29 12,48zm166 -11l0 76 -43 0 0 -76 -75 0 0 -43 75 0 0 -75 43 0 0 75 75 0 0 43 -75 0z"/>
 </g>
</svg>
