<svg id="Layer_1" data-name="Layer 1" xmlns="http://www.w3.org/2000/svg" xmlns:xlink="http://www.w3.org/1999/xlink" viewBox="0 0 36 36"><defs><style>.cls-1{fill:url(#linear-gradient);}.cls-2{fill:url(#linear-gradient-2);}.cls-3{fill:url(#linear-gradient-3);}</style><linearGradient id="linear-gradient" x1="18.09" y1="14.7" x2="18.09" y2="21.25" gradientUnits="userSpaceOnUse"><stop offset="0" stop-color="#e3bd29"/><stop offset="1" stop-color="#b27a28"/></linearGradient><linearGradient id="linear-gradient-2" x1="18" y1="9.56" x2="18" y2="26.4" xlink:href="#linear-gradient"/><linearGradient id="linear-gradient-3" x1="18" y1="0.31" x2="18" y2="35.69" xlink:href="#linear-gradient"/></defs><title>socialmedia_icon</title><path class="cls-1" d="M18.09,14.7A3.28,3.28,0,1,0,21.36,18,3.28,3.28,0,0,0,18.09,14.7Z"/><path class="cls-2" d="M22.14,9.56H13.86a4.28,4.28,0,0,0-4.28,4.27v8.29a4.28,4.28,0,0,0,4.28,4.28h8.28a4.28,4.28,0,0,0,4.28-4.28V13.83A4.28,4.28,0,0,0,22.14,9.56ZM18.09,23.08a5.11,5.11,0,1,1,5.1-5.1A5.11,5.11,0,0,1,18.09,23.08Zm5.4-9.34a1.22,1.22,0,1,1,1.22-1.22A1.21,1.21,0,0,1,23.49,13.74Z"/><path class="cls-3" d="M18,.31A17.69,17.69,0,1,0,35.69,18,17.69,17.69,0,0,0,18,.31ZM28.37,22.12a6.24,6.24,0,0,1-6.23,6.23H13.86a6.24,6.24,0,0,1-6.23-6.23V13.83A6.24,6.24,0,0,1,13.86,7.6h8.28a6.24,6.24,0,0,1,6.23,6.23Z"/></svg>