<svg id="Layer_1" data-name="Layer 1" xmlns="http://www.w3.org/2000/svg" xmlns:xlink="http://www.w3.org/1999/xlink" viewBox="0 0 193.68 190.08"><defs><style>.cls-1{fill:none;clip-rule:evenodd;}.cls-2{fill:#134093;}.cls-3{clip-path:url(#clip-path);}.cls-4{fill:url(#linear-gradient);}.cls-5{fill:#dfad00;}.cls-6{fill:#1a1a18;}.cls-7{clip-path:url(#clip-path-2);}.cls-8{fill:url(#linear-gradient-2);}</style><clipPath id="clip-path"><path class="cls-1" d="M61.74,155.19H58.86v3.55h2.88a1.86,1.86,0,0,0,1-.22,1,1,0,0,0,.28-.8v-1.53a.93.93,0,0,0-.28-.77,1.77,1.77,0,0,0-1-.23M56,165.7V153h7.09a3.37,3.37,0,0,1,2.2.59,2.33,2.33,0,0,1,.68,1.87v3a2.34,2.34,0,0,1-.68,1.86,3.37,3.37,0,0,1-2.2.59H61.39l5.87,4.8H63l-4.16-3.9v3.9Zm36.88-2.39h6v-8h-6Zm-3-7.31a3.3,3.3,0,0,1,.65-2.36A3.65,3.65,0,0,1,93,153h5.59a3.63,3.63,0,0,1,2.5.64,3.25,3.25,0,0,1,.65,2.36v6.7a3.31,3.31,0,0,1-.65,2.37,3.64,3.64,0,0,1-2.5.63H93a3.66,3.66,0,0,1-2.5-.63,3.31,3.31,0,0,1-.65-2.37Zm37.47-3v10.31H132V153h3v9.7a3.31,3.31,0,0,1-.65,2.37,3.67,3.67,0,0,1-2.51.63h-4.26a3.61,3.61,0,0,1-2.48-.63,3.26,3.26,0,0,1-.66-2.37V153Zm30.24,12.7V153h7.09a3.37,3.37,0,0,1,2.2.59,2.33,2.33,0,0,1,.68,1.87v2.84a2.35,2.35,0,0,1-.68,1.87,3.37,3.37,0,0,1-2.2.58h-4.19v4.95Zm5.78-10.51h-2.88v3.37h2.88a1.78,1.78,0,0,0,1-.22.93.93,0,0,0,.28-.79v-1.36a.93.93,0,0,0-.28-.77A1.77,1.77,0,0,0,163.37,155.19Zm-132.92.08H25v8h5.47v-2.83H27.69v-2.16h5.64v4.38a3.31,3.31,0,0,1-.65,2.37,3.66,3.66,0,0,1-2.5.63h-5a3.64,3.64,0,0,1-2.5-.63A3.31,3.31,0,0,1,22,162.7V156a3.33,3.33,0,0,1,.65-2.37,3.63,3.63,0,0,1,2.5-.64h5a3.66,3.66,0,0,1,2.49.63,3,3,0,0,1,.66,2.25v.29H30.45Z"/></clipPath><linearGradient id="linear-gradient" x1="93.46" y1="142.44" x2="95.1" y2="163.27" gradientUnits="userSpaceOnUse"><stop offset="0" stop-color="#dcb233"/><stop offset="0.19" stop-color="#efc030"/><stop offset="0.47" stop-color="#ce9916"/><stop offset="0.75" stop-color="#e2bb1c"/><stop offset="1" stop-color="#ae7618"/></linearGradient><clipPath id="clip-path-2"><path class="cls-1" d="M128.24,104.08c29.61-6.6,50.18-19.66,50.18-38S150,29.48,111.83,25.21V68.64l9.09,5.27V85.78L128.24,90ZM95.83,3.59l16,9.28V25c42.29,3.81,74.29,21.54,74.29,42.85,0,24.08-40.89,43.61-91.33,43.61S3.47,91.93,3.47,67.85C3.47,54,17,41.7,38,33.71,18.74,41.38,6.48,53,6.48,66.05c0,17.83,22.94,33.05,55.23,39.06V92.65l4.3-3.1v15l4.28-.61V73.25l4.29-2.47v32.53l4.28-.61V12.76l4.3-3.1v92.42l4.28-.62V6.89l4.29-3.1v97.06l4.1-.6Z"/></clipPath><linearGradient id="linear-gradient-2" x1="196.26" y1="57.52" x2="3.47" y2="57.52" gradientUnits="userSpaceOnUse"><stop offset="0" stop-color="#008ad1"/><stop offset="1" stop-color="#2f2482"/></linearGradient></defs><title>Precious_group_logo</title><path class="cls-2" d="M3.47,146.14V126.32H14.55a5.2,5.2,0,0,1,3.43.91,3.62,3.62,0,0,1,1.07,2.92v4.43A3.66,3.66,0,0,1,18,137.51a5.2,5.2,0,0,1-3.43.91H8v7.72Zm9-16.4H8V135h4.5a2.82,2.82,0,0,0,1.64-.34,1.53,1.53,0,0,0,.44-1.24V131.3a1.5,1.5,0,0,0-.44-1.22A2.79,2.79,0,0,0,12.51,129.74Z"/><path class="cls-2" d="M28.05,146.14V126.32H39.13a5.22,5.22,0,0,1,3.43.91,3.62,3.62,0,0,1,1.06,2.92v4.67a3.66,3.66,0,0,1-1.06,2.92,5.27,5.27,0,0,1-3.43.91H36.54l9.16,7.49H39.08l-8-7.49h1.49v7.49Zm9-16.4h-4.5v5.53h4.5a2.69,2.69,0,0,0,1.64-.35,1.46,1.46,0,0,0,.45-1.23V131.3a1.47,1.47,0,0,0-.45-1.22A2.77,2.77,0,0,0,37.08,129.74Z"/><polygon class="cls-2" points="54.71 146.14 54.71 126.32 69.13 126.32 69.13 129.7 59.32 129.7 59.32 134.12 63.93 134.12 63.93 137.5 59.32 137.5 59.32 142.42 69.32 142.42 69.32 146.14 54.71 146.14"/><path class="cls-2" d="M89.52,129.85H82.93v12.57h6.59v-3.31h4.61v2.35c0,1.81-.35,3-1,3.7s-2,1-3.89,1h-6c-1.92,0-3.22-.32-3.9-1s-1-1.89-1-3.7V131c0-1.8.34-3,1-3.69s2-1,3.9-1h6c1.92,0,3.21.33,3.89,1s1,1.9,1,3.69v1.76H89.52Z"/><rect class="cls-2" x="103.13" y="126.32" width="4.61" height="19.83"/><path class="cls-2" d="M121.35,142.42h9.35V129.85h-9.35ZM116.74,131c0-1.8.34-3,1-3.69s2-1,3.9-1h8.73c1.93,0,3.24.33,3.91,1s1,1.89,1,3.69v10.46c0,1.81-.34,3-1,3.7s-2,1-3.91,1h-8.73c-1.93,0-3.22-.32-3.9-1s-1-1.89-1-3.7Z"/><path class="cls-2" d="M148.92,126.32v16.1h7.28v-16.1h4.61v15.14c0,1.81-.34,3-1,3.7s-2,1-3.91,1h-6.66c-1.91,0-3.2-.33-3.88-1s-1-1.89-1-3.7V126.32Z"/><path class="cls-2" d="M181.77,129.77h-7.12V134h6.5c1.95,0,3.26.33,3.94,1s1,1.9,1,3.7v2.73c0,1.8-.34,3-1,3.69s-2,1-3.94,1h-6.38q-2.91,0-3.93-1c-.69-.66-1-1.89-1-3.69v-.54h4.07v1.5H182v-4.54h-6.5c-1.93,0-3.23-.33-3.91-1s-1-1.89-1-3.69V131c0-1.8.33-3,1-3.69s2-1,3.91-1h5.39c1.86,0,3.15.32,3.85,1a4.43,4.43,0,0,1,1.07,3.4v.41h-4.08Z"/><g class="cls-3"><rect class="cls-4" x="22.03" y="153" width="145.52" height="12.69"/></g><path d="M7.2,184.83a.9.9,0,0,0-.47-.85,2.74,2.74,0,0,0-1.2-.23H5.22v1.93a.22.22,0,0,0,.09.19,1.14,1.14,0,0,0,.5.06,1.77,1.77,0,0,0,1-.21,1,1,0,0,0,.42-.88M7,182.36a.91.91,0,0,0-.3-.77,2.06,2.06,0,0,0-1.2-.25H5.35a.22.22,0,0,0-.1,0l0,.16v1.74h.69Q7,183.26,7,182.36Zm1.24,2.44c0,1-.69,1.55-2.08,1.56l-2.71,0v-.3a1.43,1.43,0,0,0,.64-.16.65.65,0,0,0,.15-.51v-3.58c0-.28,0-.46-.15-.53a1.15,1.15,0,0,0-.64-.13v-.29H5.81a3.14,3.14,0,0,1,1.6.32A1.2,1.2,0,0,1,8,182.33a1.28,1.28,0,0,1-.18.72,1.46,1.46,0,0,1-.69.42C7.88,183.73,8.26,184.17,8.26,184.8Z"/><path d="M17,181.16a1.21,1.21,0,0,0-.65.22.5.5,0,0,0-.09.25s0,.09,0,.17v2.43a2.42,2.42,0,0,1-.52,1.72,2.17,2.17,0,0,1-1.62.54,2.14,2.14,0,0,1-1.6-.53,2.29,2.29,0,0,1-.5-1.62v-2.51c0-.26,0-.42-.13-.49a1.1,1.1,0,0,0-.61-.18v-.28h2.45v.28a1.44,1.44,0,0,0-.65.16.83.83,0,0,0-.1.51v2.57a1.9,1.9,0,0,0,.27,1.13,1.24,1.24,0,0,0,1,.43,1.36,1.36,0,0,0,1.07-.34,2.05,2.05,0,0,0,.36-1.39v-2.08a1.39,1.39,0,0,0-.13-.78l-.22-.13-.4-.08v-.28h2Z"/><path d="M22.18,186.38H19.62v-.3a1.43,1.43,0,0,0,.64-.16q.15-.1.15-.51v-3.58a.7.7,0,0,0-.16-.54.82.82,0,0,0-.21-.08l-.42,0v-.29h2.56v.28a1.87,1.87,0,0,0-.68.14.74.74,0,0,0-.13.53v3.58a1.39,1.39,0,0,0,0,.35.64.64,0,0,0,.1.16.38.38,0,0,0,.19.08l.49.08Z"/><path d="M29.65,184.81l-.44,1.57H24.76v-.3c.31-.05.51-.1.57-.18s.13-.22.13-.49v-3.58a.71.71,0,0,0-.12-.49c-.06-.08-.25-.14-.58-.18v-.28H27.2v.28a2.84,2.84,0,0,0-.57.1.54.54,0,0,0-.21.51l0,3.87a.62.62,0,0,0,0,.18.29.29,0,0,0,.22.07h.47a3.5,3.5,0,0,0,1.42-.19.94.94,0,0,0,.35-.3,4.56,4.56,0,0,0,.37-.6Z"/><path d="M36.71,183.66a2.19,2.19,0,0,0-.66-1.72,2.53,2.53,0,0,0-1.79-.6.81.81,0,0,0-.35,0s0,0,0,.08v4.21a.25.25,0,0,0,.06.19l.05,0,.09,0,.2,0a2.59,2.59,0,0,0,1.77-.56,2.19,2.19,0,0,0,.66-1.7m1,0a2.49,2.49,0,0,1-.84,2,3.56,3.56,0,0,1-2.41.78l-2.31,0v-.3a1.6,1.6,0,0,0,.58-.15.75.75,0,0,0,.1-.2c0-.16,0-.26,0-.32v-3.58a.73.73,0,0,0-.13-.5,1.2,1.2,0,0,0-.59-.17v-.28h2.25a3.7,3.7,0,0,1,2.43.71A2.48,2.48,0,0,1,37.75,183.63Z"/><path d="M43.05,186.38H40.49v-.3a1.48,1.48,0,0,0,.64-.16q.15-.1.15-.51v-3.58a.7.7,0,0,0-.16-.54.79.79,0,0,0-.22-.08l-.41,0v-.29h2.56v.28a1.81,1.81,0,0,0-.68.14.74.74,0,0,0-.13.53v3.58a1.23,1.23,0,0,0,0,.35.64.64,0,0,0,.1.16.38.38,0,0,0,.19.08l.49.08Z"/><path d="M51.39,181.16a1.24,1.24,0,0,0-.67.22,1.71,1.71,0,0,0-.1.77v4.32h-.29l-3.41-4.26v2.88c0,.44,0,.71.16.81a1.42,1.42,0,0,0,.6.18v.3H45.62v-.3a1.11,1.11,0,0,0,.65-.23,1.37,1.37,0,0,0,.13-.76l0-3.5-.08-.11a1.81,1.81,0,0,0-.24-.24l-.18-.05-.26,0v-.29h1.51l3,3.72v-2.45a1.28,1.28,0,0,0-.17-.81,1.1,1.1,0,0,0-.58-.18v-.28h2Z"/><path d="M59.65,183.63l-.28.05-.17.07a.26.26,0,0,0-.08.16,1.23,1.23,0,0,0,0,.29v1.58c0,.13-.25.28-.75.44a5.47,5.47,0,0,1-.7.2,4,4,0,0,1-.66.07,3,3,0,0,1-2.13-.78,2.66,2.66,0,0,1-.84-2.05,2.86,2.86,0,0,1,.81-2.06,2.7,2.7,0,0,1,2.06-.82,3.08,3.08,0,0,1,.7.07l.74.2a.32.32,0,0,0,.18-.06.51.51,0,0,0,.14-.21h.3l.08,1.86H58.7a3.52,3.52,0,0,0-.52-.91,1.62,1.62,0,0,0-1.18-.45,1.67,1.67,0,0,0-1.31.55,2.85,2.85,0,0,0-.56,1.88,2.46,2.46,0,0,0,.54,1.66,1.79,1.79,0,0,0,1.41.62,2.09,2.09,0,0,0,.56-.09,1.29,1.29,0,0,0,.45-.18s0-.05.06-.13V184.3c0-.28,0-.44-.11-.5a1.21,1.21,0,0,0-.6-.17v-.27h2.21Z"/><path d="M72.66,184.83a.9.9,0,0,0-.47-.85,2.74,2.74,0,0,0-1.2-.23h-.31v1.93a.22.22,0,0,0,.09.19,1.14,1.14,0,0,0,.5.06,1.77,1.77,0,0,0,1-.21,1,1,0,0,0,.42-.88m-.18-2.47a.91.91,0,0,0-.3-.77,2.06,2.06,0,0,0-1.2-.25h-.17l-.1,0,0,.16v1.74h.69Q72.48,183.26,72.48,182.36Zm1.24,2.44c0,1-.69,1.55-2.08,1.56l-2.71,0v-.3a1.43,1.43,0,0,0,.64-.16.65.65,0,0,0,.15-.51v-3.58c0-.28,0-.46-.15-.53a1.13,1.13,0,0,0-.64-.13v-.29h2.34a3.12,3.12,0,0,1,1.6.32,1.21,1.21,0,0,1,.6,1.13,1.28,1.28,0,0,1-.19.72,1.46,1.46,0,0,1-.69.42C73.34,183.73,73.72,184.17,73.72,184.8Z"/><path d="M81.63,184.85l-.41,1.53H76.75v-.3a1.12,1.12,0,0,0,.58-.18c.08-.06.13-.22.13-.49v-3.58a.71.71,0,0,0-.12-.49c-.06-.08-.26-.14-.59-.18v-.28h4.42l0,1.31h-.35a1.62,1.62,0,0,0-.13-.46.89.89,0,0,0-.17-.24c-.09-.1-.38-.14-.85-.14H78.61c-.1,0-.15,0-.16,0a.74.74,0,0,1,0,.15l0,1.74h1.14a1.36,1.36,0,0,0,.36,0,.44.44,0,0,0,.22-.09.8.8,0,0,0,.15-.32,2.56,2.56,0,0,0,.1-.34h.34v2h-.34c0-.06,0-.2-.12-.42a.69.69,0,0,0-.1-.24,1.11,1.11,0,0,0-.61-.11H78.44v1.9c0,.08,0,.13,0,.15s0,.06.12.08a5.51,5.51,0,0,0,.83,0,2.84,2.84,0,0,0,1.15-.18,1.72,1.72,0,0,0,.72-.87Z"/><path d="M89,182.41h-.34a2,2,0,0,0-.17-.55,1,1,0,0,0-.17-.34.54.54,0,0,0-.29-.1,4.53,4.53,0,0,0-.56,0h-.37v4c0,.18,0,.3,0,.35l.09.17a1,1,0,0,0,.31.1l.37.05v.3h-2.5v-.3a1.92,1.92,0,0,0,.64-.16,1.14,1.14,0,0,0,.1-.6v-3.94h-.35a1.68,1.68,0,0,0-.89.16,1.84,1.84,0,0,0-.34.87h-.33l.06-1.53h4.7Z"/><path d="M96.36,182.41H96a3.07,3.07,0,0,0-.17-.55,1.2,1.2,0,0,0-.18-.34.5.5,0,0,0-.29-.1,4.41,4.41,0,0,0-.56,0h-.37v4c0,.18,0,.3,0,.35a1.19,1.19,0,0,0,.1.17.82.82,0,0,0,.3.1l.37.05v.3h-2.5v-.3a1.85,1.85,0,0,0,.64-.16,1.12,1.12,0,0,0,.11-.6v-3.94h-.36a1.68,1.68,0,0,0-.89.16,2,2,0,0,0-.34.87h-.33l.06-1.53h4.7Z"/><path d="M103.84,184.85l-.41,1.53H99v-.3c.31-.05.51-.1.57-.18s.13-.22.13-.49v-3.58a.71.71,0,0,0-.12-.49c-.06-.08-.25-.14-.58-.18v-.28h4.42l0,1.31h-.35a2,2,0,0,0-.13-.46,1.18,1.18,0,0,0-.17-.24c-.1-.1-.38-.14-.85-.14h-1.1c-.1,0-.15,0-.15,0s0,.08,0,.15l0,1.74h1.14a1.33,1.33,0,0,0,.35,0,.41.41,0,0,0,.22-.09.94.94,0,0,0,.16-.32l.09-.34H103v2h-.34c0-.06,0-.2-.11-.42a.67.67,0,0,0-.11-.24,1,1,0,0,0-.6-.11h-1.14v1.9a.5.5,0,0,0,0,.15s0,.06.11.08a5.59,5.59,0,0,0,.84,0,2.84,2.84,0,0,0,1.15-.18,1.72,1.72,0,0,0,.72-.87Z"/><path d="M109.75,182.36a.87.87,0,0,0-.33-.76,1.63,1.63,0,0,0-1-.25c-.24,0-.36,0-.37,0s0,.05,0,.16v1.91a4.33,4.33,0,0,0,.66,0,1.53,1.53,0,0,0,.46-.14,1,1,0,0,0,.6-.91m1.94,4h-1.44l-1.91-2.51H108v1.53a1.07,1.07,0,0,0,.08.51,1.65,1.65,0,0,0,.64.16v.3h-2.39v-.3c.33-.05.53-.11.58-.18s0-.1.07-.21a2.86,2.86,0,0,0,0-.37v-3.49a.79.79,0,0,0-.1-.49.54.54,0,0,0-.21-.11l-.36-.07v-.28h2.29c1.42,0,2.13.49,2.13,1.48,0,.75-.46,1.21-1.38,1.39l1.57,2a.85.85,0,0,0,.27.23,1.42,1.42,0,0,0,.45.14Z"/><path d="M125.68,182.41h-.34a2,2,0,0,0-.17-.55.85.85,0,0,0-.18-.34.47.47,0,0,0-.28-.1,4.53,4.53,0,0,0-.56,0h-.37v4a2.75,2.75,0,0,0,0,.35.56.56,0,0,0,.09.17,1,1,0,0,0,.31.1l.37.05v.3h-2.5v-.3a1.92,1.92,0,0,0,.64-.16,1.14,1.14,0,0,0,.1-.6v-3.94h-.35a1.68,1.68,0,0,0-.89.16,1.84,1.84,0,0,0-.34.87h-.33l.06-1.53h4.7Z"/><path d="M132.79,183.62a3,3,0,0,0-.48-1.83,1.4,1.4,0,0,0-1.16-.58,1.34,1.34,0,0,0-1.17.58,3.12,3.12,0,0,0-.48,1.83,2.91,2.91,0,0,0,.45,1.79,1.47,1.47,0,0,0,1.2.62,1.36,1.36,0,0,0,1.16-.57,3,3,0,0,0,.48-1.84m1.09,0a2.83,2.83,0,0,1-.78,2.07,2.66,2.66,0,0,1-1.95.8,2.61,2.61,0,0,1-2-.8,3,3,0,0,1-.77-2.07,2.81,2.81,0,0,1,.77-2.06,2.67,2.67,0,0,1,2-.81,2.55,2.55,0,0,1,1.94.81A2.79,2.79,0,0,1,133.88,183.62Z"/><path d="M143.61,186.38h-2.42v-.3q.52-.06.6-.18a1,1,0,0,0,.12-.58v-3.27L140,186.38h-.21l-1.88-4.12v2.83c0,.44.05.71.16.81a1.42,1.42,0,0,0,.6.18v.3h-2.06v-.3a1.11,1.11,0,0,0,.65-.23,1.35,1.35,0,0,0,.13-.76v-3.26c0-.28,0-.46-.12-.52a.73.73,0,0,0-.23-.1l-.42,0v-.29h1.71l1.83,3.93,1.73-3.93h1.75v.28a2.76,2.76,0,0,0-.4.06.54.54,0,0,0-.2.09.77.77,0,0,0-.12.52v3.58a.94.94,0,0,0,.09.49,2.25,2.25,0,0,0,.63.18Z"/><path d="M150.73,183.62a3,3,0,0,0-.47-1.83,1.43,1.43,0,0,0-1.17-.58,1.33,1.33,0,0,0-1.16.58,3,3,0,0,0-.49,1.83,3,3,0,0,0,.45,1.79,1.47,1.47,0,0,0,1.2.62,1.39,1.39,0,0,0,1.17-.57,3,3,0,0,0,.47-1.84m1.09,0a2.83,2.83,0,0,1-.78,2.07,2.62,2.62,0,0,1-1.95.8,2.58,2.58,0,0,1-2-.8,2.86,2.86,0,0,1-.77-2.07,2.77,2.77,0,0,1,.77-2.06,2.64,2.64,0,0,1,2-.81,2.58,2.58,0,0,1,1.95.81A2.82,2.82,0,0,1,151.82,183.62Z"/><path d="M157.92,182.36a.87.87,0,0,0-.33-.76,1.63,1.63,0,0,0-1-.25c-.24,0-.36,0-.37,0s0,.05,0,.16v1.91a4.33,4.33,0,0,0,.66,0,1.53,1.53,0,0,0,.46-.14,1,1,0,0,0,.6-.91m1.94,4h-1.44l-1.91-2.51h-.31v1.53a1.07,1.07,0,0,0,.08.51,1.65,1.65,0,0,0,.64.16v.3h-2.39v-.3c.33-.05.53-.11.58-.18s0-.1.07-.21a2.86,2.86,0,0,0,0-.37v-3.49a.79.79,0,0,0-.1-.49.54.54,0,0,0-.21-.11l-.36-.07v-.28h2.29c1.42,0,2.13.49,2.13,1.48,0,.75-.46,1.21-1.38,1.39l1.57,2a.85.85,0,0,0,.27.23,1.42,1.42,0,0,0,.45.14Z"/><path d="M165.77,182.36a.87.87,0,0,0-.33-.76,1.63,1.63,0,0,0-1-.25c-.24,0-.36,0-.37,0s0,.05,0,.16v1.91a4.33,4.33,0,0,0,.66,0,1.53,1.53,0,0,0,.46-.14,1,1,0,0,0,.6-.91m1.94,4h-1.44l-1.91-2.51h-.31v1.53a1.07,1.07,0,0,0,.08.51,1.65,1.65,0,0,0,.64.16v.3h-2.39v-.3c.33-.05.53-.11.58-.18s0-.1.07-.21a2.86,2.86,0,0,0,0-.37v-3.49a.79.79,0,0,0-.1-.49.54.54,0,0,0-.21-.11l-.36-.07v-.28h2.29c1.42,0,2.13.49,2.13,1.48,0,.75-.46,1.21-1.38,1.39l1.57,2a.85.85,0,0,0,.27.23,1.42,1.42,0,0,0,.45.14Z"/><path d="M174.73,183.62a3,3,0,0,0-.47-1.83,1.43,1.43,0,0,0-1.17-.58,1.33,1.33,0,0,0-1.16.58,3,3,0,0,0-.49,1.83,3,3,0,0,0,.46,1.79,1.44,1.44,0,0,0,1.19.62,1.39,1.39,0,0,0,1.17-.57,3,3,0,0,0,.47-1.84m1.09,0a2.83,2.83,0,0,1-.78,2.07,2.62,2.62,0,0,1-1.95.8,2.58,2.58,0,0,1-2-.8,2.86,2.86,0,0,1-.77-2.07,2.77,2.77,0,0,1,.77-2.06,2.64,2.64,0,0,1,2-.81,2.58,2.58,0,0,1,1.95.81A2.82,2.82,0,0,1,175.82,183.62Z"/><path d="M186.09,181.17a.78.78,0,0,0-.38.11.51.51,0,0,0-.26.32l-1.71,4.87h-.22l-1.23-3.29-1.2,3.29h-.22l-1.28-3.61c-.11-.33-.24-.64-.37-1-.06-.13-.13-.28-.23-.47l-.2-.18a1.17,1.17,0,0,0-.33-.1v-.28h2.15v.29a.91.91,0,0,0-.42.06c-.08,0-.12.08-.13.15a1.19,1.19,0,0,0,.09.31l1.11,2.86.76-2.06-.37-.93a.57.57,0,0,0-.29-.33.39.39,0,0,0-.15,0l-.27,0v-.29h2.32v.31H183l-.18,0c-.07,0-.1.11-.11.21a.38.38,0,0,0,0,.1,1.25,1.25,0,0,0,.07.21l1.09,2.82.94-2.53.09-.3a1.29,1.29,0,0,0,0-.25.27.27,0,0,0-.15-.24l-.16,0-.25,0v-.29h1.75Z"/><rect class="cls-5" x="3.47" y="172.55" width="182.64" height="0.58"/><path class="cls-6" d="M185.06,25.61h.86a1.41,1.41,0,0,0,.84-.18.61.61,0,0,0,.22-.49.58.58,0,0,0-.11-.34.58.58,0,0,0-.3-.23,2.15,2.15,0,0,0-.71-.08h-.8Zm-.71,2.46V23.7h1.51a3.76,3.76,0,0,1,1.12.12,1.09,1.09,0,0,1,.55.42,1.17,1.17,0,0,1-.14,1.48,1.4,1.4,0,0,1-.91.4,1.11,1.11,0,0,1,.37.23,4.82,4.82,0,0,1,.65.87l.53.85h-.86l-.39-.69a3.47,3.47,0,0,0-.74-1,.86.86,0,0,0-.57-.14h-.41v1.85Zm1.79-5.64a3.39,3.39,0,0,0-1.67.44,3.12,3.12,0,0,0-1.27,1.25,3.38,3.38,0,0,0,0,3.39,3.18,3.18,0,0,0,1.26,1.26,3.4,3.4,0,0,0,3.38,0,3.18,3.18,0,0,0,1.26-1.26,3.45,3.45,0,0,0,0-3.39,3.18,3.18,0,0,0-1.27-1.25A3.42,3.42,0,0,0,186.14,22.43Zm0-.68a4.19,4.19,0,0,1,2,.53,3.72,3.72,0,0,1,1.52,1.5,4.07,4.07,0,0,1,0,4.07,3.78,3.78,0,0,1-1.51,1.51,4.07,4.07,0,0,1-4,0,3.85,3.85,0,0,1-1.51-1.51,4.11,4.11,0,0,1-.54-2,4.23,4.23,0,0,1,.55-2,3.81,3.81,0,0,1,1.53-1.5A4.16,4.16,0,0,1,186.14,21.75Z"/><g class="cls-7"><rect class="cls-8" x="3.47" y="3.59" width="182.64" height="107.86"/></g></svg>