<svg id="Layer_1" data-name="Layer 1" xmlns="http://www.w3.org/2000/svg" viewBox="0 0 36 36"><defs><style>.cls-1{fill:#2059a6;}.cls-2{fill:#fff;}</style></defs><title>mail_blue</title><circle class="cls-1" cx="18" cy="18" r="17.69"/><path class="cls-2" d="M8,9.17l8.2,9.31a2.45,2.45,0,0,0,3.68,0L27.9,9.33a1,1,0,0,1,.23-.18A2.76,2.76,0,0,0,27,8.92H9a2.72,2.72,0,0,0-1.07.21Z"/><path class="cls-2" d="M29.37,10.22a.72.72,0,0,1-.15.27l-8.06,9.14a4.21,4.21,0,0,1-6.32,0l-8.2-9.3,0-.06a2.8,2.8,0,0,0-.4,1.43V24.3A2.78,2.78,0,0,0,9,27.08H27A2.78,2.78,0,0,0,29.8,24.3V11.7A2.78,2.78,0,0,0,29.37,10.22Z"/></svg>