<svg id="Layer_1" data-name="Layer 1" xmlns="http://www.w3.org/2000/svg" xmlns:xlink="http://www.w3.org/1999/xlink" viewBox="0 0 36 36"><defs><style>.cls-1{fill:url(#linear-gradient);}</style><linearGradient id="linear-gradient" x1="18" y1="0.31" x2="18" y2="35.69" gradientUnits="userSpaceOnUse"><stop offset="0" stop-color="#e3bd29"/><stop offset="1" stop-color="#b27a28"/></linearGradient></defs><title>socialmedia_icon</title><path class="cls-1" d="M18,.31A17.69,17.69,0,1,0,35.69,18,17.69,17.69,0,0,0,18,.31ZM9,8.92H27a2.76,2.76,0,0,1,1.11.23,1,1,0,0,0-.23.18l-8.06,9.15a2.45,2.45,0,0,1-3.68,0L8,9.17l0,0A2.72,2.72,0,0,1,9,8.92ZM29.8,24.3A2.78,2.78,0,0,1,27,27.08H9A2.78,2.78,0,0,1,6.2,24.3V11.7a2.8,2.8,0,0,1,.4-1.43l0,.06,8.2,9.3a4.21,4.21,0,0,0,6.32,0l8.06-9.14a.72.72,0,0,0,.15-.27,2.78,2.78,0,0,1,.43,1.48Z"/></svg>