<svg id="Layer_1" data-name="Layer 1" xmlns="http://www.w3.org/2000/svg" viewBox="0 0 36 28.8"><defs><style>.cls-1{fill:#333;}</style></defs><title>mail_icon_2</title><path class="cls-1" d="M2.94,1.16l12.3,14a3.67,3.67,0,0,0,5.52,0L32.84,1.4a1.31,1.31,0,0,1,.35-.27A4.27,4.27,0,0,0,31.52.78h-27a4.27,4.27,0,0,0-1.6.32Z"/><path class="cls-1" d="M35.05,2.74a1.37,1.37,0,0,1-.24.4L22.73,16.85a6.32,6.32,0,0,1-9.46,0L1,2.9.91,2.81A4.14,4.14,0,0,0,.31,5V23.84A4.18,4.18,0,0,0,4.48,28h27a4.18,4.18,0,0,0,4.17-4.18V5A4.18,4.18,0,0,0,35.05,2.74Z"/></svg>