<svg id="Layer_1" data-name="Layer 1" xmlns="http://www.w3.org/2000/svg" viewBox="0 0 36 36"><defs><style>.cls-1{fill:#333;}</style></defs><title>pintrest_icon_grey</title><path class="cls-1" d="M18,.31a17.68,17.68,0,0,0-7.22,33.83c0-.5,0-1,0-1.49.05-1.72.27-2.31,2.48-11.64a.59.59,0,0,0-.05-.39A6.59,6.59,0,0,1,13,16.26c1-3.18,4.61-3.42,5.24-.8.39,1.62-.64,3.75-1.43,6.89-.65,2.59,2.4,4.43,5,2.54C24.24,23.15,25.17,19,25,16c-.35-5.9-6.83-7.18-10.94-5.28-4.71,2.18-5.78,8-3.66,10.69.27.34.48.55.39.89-.13.54-.25,1.07-.4,1.61a.57.57,0,0,1-.84.37,4.7,4.7,0,0,1-2-1.47c-1.81-2.24-2.32-6.66.07-10.41,2.64-4.15,7.56-5.83,12.06-5.32,5.36.61,8.76,4.28,9.39,8.44a14,14,0,0,1-2.58,9.87c-3.06,3.8-8,4.05-10.31,1.72-.17-.18-.32-.39-.49-.6,0,.08-.05.16-.07.23C14.56,31,14.43,32,13.3,34c-.17.31-.36.6-.55.9A17.69,17.69,0,1,0,18,.31Z"/></svg>