<svg id="Layer_1" data-name="Layer 1" xmlns="http://www.w3.org/2000/svg" viewBox="0 0 36 36"><defs><style>.cls-1{fill:#2059a6;}</style></defs><title>socialmedia_icon</title><path class="cls-1" d="M22.14,9.58H13.86a4.28,4.28,0,0,0-4.28,4.28v8.28a4.28,4.28,0,0,0,4.28,4.28h8.28a4.28,4.28,0,0,0,4.28-4.28V13.86A4.28,4.28,0,0,0,22.14,9.58ZM18.09,23.11A5.11,5.11,0,1,1,23.19,18,5.11,5.11,0,0,1,18.09,23.11Zm5.4-9.35a1.22,1.22,0,0,1,0-2.43,1.22,1.22,0,1,1,0,2.43Z"/><path class="cls-1" d="M18,.31A17.69,17.69,0,1,0,35.69,18,17.69,17.69,0,0,0,18,.31ZM28.37,22.14a6.23,6.23,0,0,1-6.23,6.23H13.86a6.23,6.23,0,0,1-6.23-6.23V13.86a6.23,6.23,0,0,1,6.23-6.23h8.28a6.23,6.23,0,0,1,6.23,6.23Z"/><path class="cls-1" d="M18.09,14.73A3.27,3.27,0,1,0,21.36,18,3.28,3.28,0,0,0,18.09,14.73Z"/></svg>