<svg id="Layer_1" data-name="Layer 1" xmlns="http://www.w3.org/2000/svg" xmlns:xlink="http://www.w3.org/1999/xlink" viewBox="0 0 36 36"><defs><style>.cls-1{fill:url(#linear-gradient);}</style><linearGradient id="linear-gradient" x1="18" y1="0.31" x2="18" y2="35.69" gradientUnits="userSpaceOnUse"><stop offset="0" stop-color="#e3bd29"/><stop offset="1" stop-color="#b27a28"/></linearGradient></defs><title>socialmedia_icon</title><path class="cls-1" d="M18,.31A17.69,17.69,0,1,0,35.69,18,17.69,17.69,0,0,0,18,.31ZM27.85,12a.46.46,0,0,1-.1.3,7.84,7.84,0,0,1-1.54,1.61c-.09.06-.24.13-.24.26a11.9,11.9,0,0,1-3.13,8.67,11.67,11.67,0,0,1-11.33,2.65,10.21,10.21,0,0,1-2.2-.88,6.71,6.71,0,0,1-.68-.4c-.06-.05-.1-.09-.05-.12s.09,0,.26,0a7.63,7.63,0,0,0,3.28-.42,5.06,5.06,0,0,0,2.16-1.14s0,0,0,0-.28,0-.43-.06a4.21,4.21,0,0,1-3.16-2.64c0-.11,0-.16.11-.14a4.45,4.45,0,0,0,1.51-.05,2.74,2.74,0,0,1-.51-.15,4.07,4.07,0,0,1-2.51-3.25,1.84,1.84,0,0,1,0-.46c0-.1.05-.14.15-.08a4.07,4.07,0,0,0,1.53.43c-.17-.13-.33-.28-.49-.43a4,4,0,0,1-.68-4.76c.07-.12.12-.12.22,0A12.35,12.35,0,0,0,18,14.91c.09,0,.1,0,.08-.1a4.22,4.22,0,0,1,0-1.66,4.07,4.07,0,0,1,.78-1.57,4.32,4.32,0,0,1,1.32-1.08A4.19,4.19,0,0,1,21.81,10a4.07,4.07,0,0,1,1.72.28,4.18,4.18,0,0,1,1.12.69l.2.2a.15.15,0,0,0,.16,0,10.13,10.13,0,0,0,2.31-.89.11.11,0,0,1,.11,0,.08.08,0,0,1,0,.1,3.59,3.59,0,0,1-.65,1.18c-.18.23-.64.8-1,.85a7.76,7.76,0,0,0,1.95-.55c.08,0,.08,0,.08,0Z"/></svg>